# xmcd CD database file
#
# Track frame offsets:
#	182
#	17217
#	30795
#	41377
#	51392
#	65150
#	80285
#	91592
#	103667
#	119560
#	130415
#	141087
#	160797
#	173532
#	194037
#	202687
#	214552
#	225457
#	236212
#	245435
#	255647
#
# Disc length: 3647 seconds
#
# Revision: 1
# Processed by: cddbd v1.5.2PL0 Copyright (c) Steve Scherf et al.
# Submitted via: CDex 1.70beta2
#
DISCID=180e3d15
DTITLE=Various Artist - Country Stars 5
DYEAR=1991
DGENRE=Country
TTITLE0=Faron Young and Young Deaton - Wine Me Up
TTITLE1=Faron Young and Crutchfield - This Little Girl Of Mine
TTITLE2=Faron Young and Young - Goin' Steady
TTITLE3=Faron Young and Nelson - Hello Walls
TTITLE4=Faron Young and Chestnut - It's Four In The Morning
TTITLE5=Tom T.Hall - Like Beer
TTITLE6=Tom T.Hall - Ravishing Ruby
TTITLE7=Tom T.Hall - The Year Clayton Delaney Died
TTITLE8=Tom T.Hall - Old Dogs Children And Watermelon Wine
TTITLE9=Leroy Van Dyke - Alk On By
TTITLE10=Leroy Van Dyke - The Auctioneer
TTITLE11=Johnny Russel - Got No Reason Now For Going Home
TTITLE12=Johnny Russel - Chrystal Chandeliers
TTITLE13=Jimmy Dean - Bill Bailey
TTITLE14=Jimmy Dean -  Big Bad John
TTITLE15=Porter Wagoner - Ole Slewfoot
TTITLE16=Porter Wagoner -  I Thought I Heard You Calling My Name
TTITLE17=Porter Wagoner - Sugarfoot Rag
TTITLE18=Porter Wagoner - Lousiana Saturday Night
TTITLE19=Porter Wagoner - Satisfied Mind
TTITLE20=Porter Wagoner - Y'all Come
EXTD=YEAR: 1991
EXTT0=
EXTT1=
EXTT2=
EXTT3=
EXTT4=
EXTT5=
EXTT6=
EXTT7=
EXTT8=
EXTT9=
EXTT10=
EXTT11=
EXTT12=
EXTT13=
EXTT14=
EXTT15=
EXTT16=
EXTT17=
EXTT18=
EXTT19=
EXTT20=
PLAYORDER=
